<svg width="32" height="32" viewBox="0 0 32 32" fill="none" xmlns="http://www.w3.org/2000/svg">
<path d="M30.5032 8.25791H1.49677C0.670968 8.25791 0 7.53533 0 6.70952C0 5.88371 0.670968 5.16113 1.49677 5.16113H30.5032C31.329 5.16113 32 5.88371 32 6.70952C32 7.53533 31.329 8.25791 30.5032 8.25791Z" fill="#3E0563"/>
<path d="M30.5032 17.5484H1.49677C0.670968 17.5484 0 16.8259 0 16C0 15.1742 0.670968 14.4517 1.49677 14.4517H30.5032C31.329 14.4517 32 15.1742 32 16C32 16.8259 31.329 17.5484 30.5032 17.5484Z" fill="#3E0563"/>
<path d="M30.5032 26.8385H1.49677C0.670968 26.8385 0 26.1159 0 25.2901C0 24.4643 0.670968 23.7417 1.49677 23.7417H30.5032C31.329 23.7417 32 24.4643 32 25.2901C32 26.1159 31.329 26.8385 30.5032 26.8385Z" fill="#3E0563"/>
<path d="M30.5029 23.7417H23.5352L26.5287 26.8385H30.4513C31.2771 26.8385 31.9481 26.1159 31.9481 25.2901C31.9997 24.4643 31.3287 23.7417 30.5029 23.7417Z" fill="#3E0563"/>
<path d="M30.5035 14.4517H14.3486L17.3422 17.5484H30.4519C31.2777 17.5484 31.9486 16.8259 31.9486 16C31.9486 15.1742 31.3293 14.4517 30.5035 14.4517Z" fill="#3E0563"/>
<path d="M30.5031 5.16113H5.16113L8.15468 8.25791H30.4515C31.2773 8.25791 31.9482 7.53533 31.9482 6.70952C31.9998 5.88371 31.3289 5.16113 30.5031 5.16113Z" fill="#3E0563"/>
</svg>
