<svg width="24" height="24" viewBox="0 0 24 24" fill="none" xmlns="http://www.w3.org/2000/svg">
<g clip-path="url(#clip0_182_10103)">
<path d="M23.6094 21.7199C23.8605 21.9692 24.0022 22.308 24.0035 22.6618C24.0048 23.0156 23.8654 23.3554 23.6161 23.6065C23.3668 23.8576 23.028 23.9993 22.6741 24.0006C22.3203 24.0018 21.9805 23.8625 21.7294 23.6132L12.0068 13.8932L2.26676 23.6132C2.01569 23.8625 1.67586 24.0018 1.32204 24.0006C0.968226 23.9993 0.629396 23.8576 0.380092 23.6065C0.130789 23.3554 -0.00856612 23.0156 -0.00731588 22.6618C-0.00606564 22.308 0.135687 21.9692 0.386759 21.7199L10.1134 11.9999L0.390759 2.28252C0.140957 2.03078 0.000781045 1.6905 0.000781045 1.33585C0.000781045 0.981206 0.140957 0.640932 0.390759 0.389188C0.640576 0.140854 0.978511 0.00146484 1.33076 0.00146484C1.68301 0.00146484 2.02094 0.140854 2.27076 0.389188L12.0041 10.1225L21.7268 0.389188C21.9766 0.140854 22.3145 0.00146484 22.6668 0.00146484C23.019 0.00146484 23.3569 0.140854 23.6068 0.389188C23.8566 0.640932 23.9967 0.981206 23.9967 1.33585C23.9967 1.6905 23.8566 2.03078 23.6068 2.28252L13.8868 11.9999L23.6094 21.7199Z" fill="#3E0563"/>
</g>
<defs>
<clipPath id="clip0_182_10103">
<rect width="24" height="24" fill="white"/>
</clipPath>
</defs>
</svg>
