<svg width="80" height="78" viewBox="0 0 80 78" fill="none" xmlns="http://www.w3.org/2000/svg">
<path d="M43.8631 3.14858L52.8861 21.4314C53.5135 22.703 54.7267 23.5841 56.1301 23.7877L76.307 26.7197C79.8414 27.2337 81.2515 31.5758 78.695 34.0672L64.0951 48.2984C63.0805 49.2879 62.6166 50.7147 62.8569 52.1115L66.3028 72.2066C66.9069 75.726 63.2123 78.4093 60.0517 76.7489L42.0058 67.2621C40.7509 66.6029 39.2507 66.6029 37.9958 67.2621L19.9499 76.7489C16.7893 78.411 13.0947 75.726 13.6988 72.2066L17.1447 52.1115C17.385 50.7147 16.9211 49.2879 15.9065 48.2984L1.30659 34.0672C-1.24994 31.5741 0.16016 27.232 3.69458 26.7197L23.8715 23.7877C25.2749 23.5841 26.4881 22.703 27.1155 21.4314L36.1385 3.14858C37.7171 -0.053758 42.2828 -0.053758 43.8631 3.14858Z" fill="#FA9706"/>
</svg>
