<svg width="40" height="40" viewBox="0 0 40 40" fill="none" xmlns="http://www.w3.org/2000/svg">
<path d="M21.9316 2.07429L26.443 11.2157C26.7568 11.8515 27.3634 12.2921 28.0651 12.3939L38.1535 13.8599C39.9207 14.1168 40.6258 16.2879 39.3475 17.5336L32.0475 24.6492C31.5402 25.144 31.3083 25.8574 31.4284 26.5557L33.1514 36.6033C33.4535 38.363 31.6062 39.7047 30.0259 38.8745L21.0029 34.131C20.3755 33.8014 19.6253 33.8014 18.9979 34.131L9.97495 38.8745C8.39464 39.7055 6.54733 38.363 6.84938 36.6033L8.57236 26.5557C8.69251 25.8574 8.46056 25.144 7.95326 24.6492L0.653297 17.5336C-0.624968 16.2871 0.0800799 14.116 1.84729 13.8599L11.9357 12.3939C12.6374 12.2921 13.244 11.8515 13.5578 11.2157L18.0692 2.07429C18.8586 0.473121 21.1414 0.473121 21.9316 2.07429Z" fill="#FA9706"/>
</svg>
