<svg width="160" height="160" viewBox="0 0 160 160" fill="none" xmlns="http://www.w3.org/2000/svg">
<path d="M43.3204 142.842L0 125.928V73.3076L43.3204 90.2241V142.842Z" fill="#FA9706"/>
<path d="M43.3203 142.842L86.6457 125.928V73.3076L43.3203 90.2241V142.842Z" fill="#3E0563"/>
<path d="M43.3204 56.3915L0 73.3076L43.3204 90.2241L86.6408 73.3076L43.3204 56.3915Z" fill="#FFCE54"/>
<path d="M45.6786 70.5056C46.9774 71.8069 46.9774 73.9186 45.6786 75.2198C44.3752 76.5211 42.2657 76.5211 40.9666 75.2198C39.6631 73.9186 39.6631 71.8069 40.9666 70.5056C42.2657 69.2043 44.3752 69.2043 45.6786 70.5056Z" fill="#434A54"/>
<path d="M70.957 93.9255C69.6582 95.2343 69.6582 97.3437 70.957 98.6425C72.2608 99.9413 74.3699 99.9413 75.669 98.6425C76.9728 97.3437 76.9728 95.2343 75.669 93.9255C74.3702 92.6264 72.2608 92.6264 70.957 93.9255Z" fill="#434A54"/>
<path d="M15.6837 93.9255C16.9872 95.2343 16.9872 97.3437 15.6837 98.6425C14.3849 99.9413 12.2754 99.9413 10.9717 98.6425C9.67286 97.3437 9.67286 95.2343 10.9717 93.9255C12.2754 92.6264 14.3849 92.6264 15.6837 93.9255Z" fill="#434A54"/>
<path d="M32.3488 117.158C33.6476 118.466 33.6476 120.576 32.3488 121.875C31.045 123.173 28.9359 123.173 27.6368 121.875C26.333 120.576 26.333 118.466 27.6368 117.158C28.9356 115.859 31.045 115.859 32.3488 117.158Z" fill="#434A54"/>
<path d="M54.2972 117.256C52.9934 118.554 52.9934 120.664 54.2972 121.973C55.596 123.271 57.7054 123.271 59.0092 121.973C60.308 120.664 60.308 118.554 59.0092 117.256C57.7054 115.957 55.596 115.957 54.2972 117.256Z" fill="#434A54"/>
<path d="M62.627 105.595C61.3232 106.894 61.3232 109.003 62.627 110.302C63.9258 111.611 66.0352 111.611 67.339 110.302C68.6428 109.003 68.6428 106.895 67.339 105.595C66.0352 104.287 63.9258 104.287 62.627 105.595Z" fill="#434A54"/>
<path d="M127.006 98.1977L80.5321 99.9509L59.5605 51.6897L106.035 49.9387L127.006 98.1977Z" fill="#FA9706"/>
<path d="M127.006 98.1978L160 65.4152L139.028 17.1581L106.035 49.9388L127.006 98.1978Z" fill="#3E0563"/>
<path d="M92.5485 18.9084L59.5605 51.6898L106.035 49.9388L139.028 17.1581L92.5485 18.9084Z" fill="#FFCE54"/>
<path d="M100.498 30.6982C102.202 31.3819 103.032 33.3226 102.349 35.0317C101.665 36.738 99.7264 37.5684 98.0176 36.8846C96.3085 36.1986 95.4785 34.2601 96.162 32.5513C96.8454 30.8422 98.7889 30.0119 100.498 30.6982Z" fill="#434A54"/>
<path d="M82.0947 63.9429C83.8038 64.6267 84.6338 66.5674 83.9504 68.274C83.2666 69.9831 81.3281 70.8131 79.6193 70.1297C77.9105 69.4437 77.0801 67.5052 77.7639 65.7961C78.447 64.087 80.3906 63.2566 82.0947 63.9429Z" fill="#434A54"/>
<path d="M107.9 81.8991C109.609 82.5828 110.439 84.5235 109.756 86.2301C109.072 87.9392 107.129 88.7693 105.425 88.0858C103.716 87.402 102.886 85.4589 103.569 83.7522C104.253 82.0431 106.192 81.2131 107.9 81.8991Z" fill="#434A54"/>
<path d="M100.039 63.5154C101.748 64.1989 102.578 66.1399 101.89 67.849C101.206 69.5556 99.2674 70.3856 97.5586 69.7022C95.8498 69.0187 95.0195 67.0777 95.7029 65.3686C96.3867 63.6595 98.3299 62.8298 100.039 63.5154Z" fill="#434A54"/>
<path d="M89.9605 82.3242C91.6696 83.0101 92.4997 84.9486 91.8162 86.6602C91.1324 88.3694 89.1892 89.1994 87.4808 88.5159C85.7716 87.8275 84.9416 85.889 85.6301 84.1773C86.3135 82.4704 88.2514 81.6404 89.9605 82.3242Z" fill="#434A54"/>
<path d="M132.915 42.2019C132.226 43.9082 133.056 45.8492 134.765 46.5352C136.475 47.2189 138.418 46.3886 139.101 44.6798C139.785 42.9732 138.955 41.0325 137.246 40.3462C135.537 39.6628 133.599 40.4931 132.915 42.2019Z" fill="#434A54"/>
<path d="M140.777 60.5834C140.093 62.2922 140.923 64.2332 142.632 64.9167C144.341 65.6026 146.279 64.7726 146.963 63.0638C147.651 61.355 146.821 59.4165 145.112 58.7302C143.404 58.0465 141.465 58.8768 140.777 60.5834Z" fill="#434A54"/>
<path d="M120.215 54.8823C119.531 56.5914 120.361 58.5299 122.071 59.2159C123.78 59.8997 125.718 59.0693 126.401 57.3627C127.085 55.6536 126.254 53.7129 124.551 53.0291C122.842 52.3438 120.898 53.1735 120.215 54.8823Z" fill="#434A54"/>
<path d="M128.081 73.2664C127.397 74.9755 128.227 76.914 129.932 77.5999C131.641 78.2837 133.584 77.4534 134.268 75.7442C134.951 74.0351 134.121 72.0969 132.412 71.4132C130.703 70.7278 128.764 71.5576 128.081 73.2664Z" fill="#434A54"/>
<path d="M130.498 57.7365C129.814 59.4456 130.644 61.3866 132.353 62.07C134.063 62.756 136.001 61.926 136.685 60.2172C137.368 58.508 136.538 56.5671 134.834 55.8836C133.125 55.2001 131.181 56.0299 130.498 57.7365Z" fill="#434A54"/>
</svg>
