<svg width="80" height="80" viewBox="0 0 80 80" fill="none" xmlns="http://www.w3.org/2000/svg">
<path d="M27.955 49.245V80L40.9775 65.895L53.13 79.79V48.74" fill="#3E0563"/>
<path d="M40 52.95C54.6218 52.95 66.475 41.0967 66.475 26.475C66.475 11.8533 54.6218 0 40 0C25.3783 0 13.525 11.8533 13.525 26.475C13.525 41.0967 25.3783 52.95 40 52.95Z" fill="#FA9706"/>
<path d="M40 43.46C49.3806 43.46 56.985 35.8556 56.985 26.475C56.985 17.0944 49.3806 9.48999 40 9.48999C30.6195 9.48999 23.015 17.0944 23.015 26.475C23.015 35.8556 30.6195 43.46 40 43.46Z" fill="#3E0563"/>
</svg>
