<svg width="180" height="180" viewBox="0 0 180 180" fill="none" xmlns="http://www.w3.org/2000/svg">
<path fill-rule="evenodd" clip-rule="evenodd" d="M0 180H45.7112C45.7112 162.365 49.1847 144.903 55.9335 128.611C62.6822 112.319 72.574 97.5156 85.044 85.0464C97.5139 72.5772 112.318 62.6862 128.611 55.9385C144.903 49.1908 162.365 45.7183 180 45.7194V0C80.5899 0 0 80.5899 0 180Z" fill="#3E0563"/>
<path fill-rule="evenodd" clip-rule="evenodd" d="M80.0028 180H116.287C116.287 163.113 122.996 146.918 134.936 134.977C146.877 123.036 163.072 116.328 179.959 116.328V80.0437C153.452 80.0547 128.034 90.5892 109.291 109.332C90.5484 128.075 80.0138 153.493 80.0028 180Z" fill="#FA9706"/>
</svg>
