<svg width="160" height="160" viewBox="0 0 160 160" fill="none" xmlns="http://www.w3.org/2000/svg">
<path d="M136.168 100.565C149.33 67.8066 137.506 32.2126 109.758 21.0637C82.0102 9.91471 48.846 27.4326 35.6839 60.191C22.5217 92.9494 34.3458 128.543 62.0937 139.692C89.8417 150.841 123.006 133.323 136.168 100.565Z" fill="#FA9706"/>
<g opacity="0.1">
<path opacity="0.1" d="M136.168 100.565C149.33 67.8065 137.506 32.2125 109.758 21.0636C82.0103 9.91459 48.8461 27.4325 35.684 60.1909C22.5218 92.9493 34.3459 128.543 62.0939 139.692C89.8418 150.841 123.006 133.323 136.168 100.565Z" fill="#0C0114"/>
<path opacity="0.1" d="M83.459 16.9478L96.3303 17.9007L75.2165 142.876L62.3452 141.923L83.459 16.9478Z" fill="#0C0114"/>
</g>
<path d="M124.316 99.6882C137.478 66.9298 125.654 31.3358 97.9064 20.1868C70.1585 9.03788 36.9943 26.5558 23.8322 59.3142C10.67 92.0726 22.4941 127.667 50.2421 138.816C77.99 149.964 111.154 132.447 124.316 99.6882Z" fill="#FA9706"/>
<path d="M113.269 95.2494C123.536 69.696 114.311 41.9301 92.6646 33.2327C71.018 24.5352 45.1468 38.1996 34.8796 63.7531C24.6123 89.3066 33.8371 117.072 55.4836 125.77C77.1302 134.467 103.001 120.803 113.269 95.2494Z" fill="white"/>
<path d="M102.348 90.8568C109.751 72.4322 103.099 52.4121 87.4906 46.1406C71.882 39.8692 53.2275 49.7212 45.8246 68.1458C38.4217 86.5705 45.0737 106.591 60.6823 112.862C76.2909 119.134 94.9454 109.281 102.348 90.8568Z" fill="#3E0563"/>
<path d="M91.2895 86.4133C95.7975 75.1937 91.75 63.0037 82.2491 59.1863C72.7482 55.3689 61.3918 61.3696 56.8838 72.5893C52.3758 83.809 56.4233 95.9989 65.9242 99.8163C75.4251 103.634 86.7815 97.633 91.2895 86.4133Z" fill="white"/>
<path d="M82.5803 78.4823C82.5803 83.7298 78.7437 88.4451 74.0531 89.0144C69.3625 89.5837 65.6001 85.809 65.6249 80.5738C65.6496 75.3387 69.4739 70.6729 74.1521 70.0293C78.8303 69.3857 82.605 73.2347 82.5803 78.4823Z" fill="#FA9706"/>
</svg>
