<svg width="14" height="17" viewBox="0 0 14 17" fill="none" xmlns="http://www.w3.org/2000/svg">
<path d="M7.00163 16.7562L6.53496 16.3562C5.89163 15.8175 0.274292 10.9662 0.274292 7.41752C0.274292 5.63332 0.983063 3.9222 2.24468 2.66058C3.5063 1.39896 5.21743 0.690186 7.00163 0.690186C8.78582 0.690186 10.4969 1.39896 11.7586 2.66058C13.0202 3.9222 13.729 5.63332 13.729 7.41752C13.729 10.9662 8.11163 15.8175 7.47096 16.3589L7.00163 16.7562ZM7.00163 2.14485C5.60371 2.14644 4.26351 2.70246 3.27504 3.69093C2.28657 4.67941 1.73055 6.01961 1.72896 7.41752C1.72896 9.64685 5.18496 13.2082 7.00163 14.8382C8.81829 13.2075 12.2743 9.64419 12.2743 7.41752C12.2727 6.01961 11.7167 4.67941 10.7282 3.69093C9.73974 2.70246 8.39954 2.14644 7.00163 2.14485Z" fill="#5D84C1"/>
</svg>
