<svg width="40" height="30" viewBox="0 0 40 30" fill="none" xmlns="http://www.w3.org/2000/svg">
<path d="M38 0H2C1.60218 0 1.22064 0.158036 0.93934 0.43934C0.658035 0.720645 0.5 1.10218 0.5 1.5V27C0.5 27.7956 0.81607 28.5587 1.37868 29.1213C1.94129 29.6839 2.70435 30 3.5 30H36.5C37.2956 30 38.0587 29.6839 38.6213 29.1213C39.1839 28.5587 39.5 27.7956 39.5 27V1.5C39.5 1.10218 39.342 0.720645 39.0607 0.43934C38.7794 0.158036 38.3978 0 38 0ZM36.5 27H3.5V4.9125L18.9875 19.1062C19.264 19.3592 19.6252 19.4995 20 19.4995C20.3748 19.4995 20.736 19.3592 21.0125 19.1062L36.5 4.9125V27Z" fill="white"/>
</svg>
