<svg width="13" height="13" viewBox="0 0 13 13" fill="none" xmlns="http://www.w3.org/2000/svg">
<path d="M0.00285284 13L0.881652 9.77079C0.302592 8.77815 -0.00163477 7.64919 0.000252872 6.5C0.000252872 2.91005 2.9103 0 6.50025 0C10.0902 0 13.0002 2.91005 13.0002 6.5C13.0002 10.0899 10.0902 13 6.50025 13C5.35155 13.0018 4.22308 12.6979 3.23075 12.1192L0.00285284 13ZM4.1544 3.4502C4.07046 3.45541 3.98844 3.47752 3.91325 3.5152C3.84274 3.55513 3.77837 3.60504 3.72215 3.6634C3.64415 3.73685 3.59995 3.80055 3.5525 3.8623C3.31227 4.17494 3.18305 4.55872 3.18525 4.953C3.18655 5.2715 3.26975 5.58155 3.39975 5.87145C3.6656 6.45775 4.10305 7.0785 4.6809 7.65374C4.82 7.79219 4.95585 7.93129 5.1021 8.06064C5.8193 8.69209 6.67396 9.14747 7.5981 9.39054L7.96795 9.44709C8.0882 9.45359 8.20845 9.44449 8.32935 9.43864C8.51865 9.42887 8.7035 9.37761 8.8708 9.28849C8.95592 9.24465 9.03899 9.19693 9.11975 9.14549C9.11975 9.14549 9.1477 9.12729 9.201 9.08699C9.28875 9.02199 9.3427 8.97584 9.4155 8.89979C9.46945 8.84389 9.51625 8.77824 9.552 8.70349C9.6027 8.59754 9.6534 8.39539 9.6742 8.22704C9.6898 8.09834 9.68525 8.02814 9.6833 7.98459C9.6807 7.91504 9.62285 7.84289 9.5598 7.81234L9.1815 7.64269C9.1815 7.64269 8.616 7.39635 8.27085 7.23905C8.23446 7.22318 8.19546 7.21415 8.1558 7.21239C8.11132 7.20783 8.06639 7.21283 8.02401 7.22707C7.98163 7.24131 7.94279 7.26445 7.9101 7.29494V7.29364C7.90685 7.29364 7.8633 7.3307 7.39335 7.90009C7.36637 7.93634 7.32922 7.96373 7.28662 7.97878C7.24402 7.99383 7.1979 7.99585 7.15415 7.98459C7.1118 7.97327 7.07031 7.95893 7.03 7.94169C6.9494 7.9079 6.92145 7.89489 6.8662 7.87084L6.86295 7.86954C6.49109 7.70719 6.14679 7.4879 5.84245 7.21955C5.76055 7.14805 5.6845 7.07004 5.6065 6.99465C5.35077 6.74975 5.12791 6.4727 4.9435 6.17045L4.90515 6.1087C4.8776 6.0672 4.85533 6.02244 4.83885 5.97545C4.81415 5.8799 4.8785 5.8032 4.8785 5.8032C4.8785 5.8032 5.03645 5.6303 5.1099 5.5367C5.17106 5.45891 5.22812 5.37798 5.28085 5.29425C5.35755 5.17075 5.3816 5.044 5.3413 4.94585C5.1593 4.50125 4.9708 4.0586 4.7771 3.6192C4.73875 3.5321 4.625 3.4697 4.52165 3.45735C4.48655 3.45345 4.45145 3.44955 4.41635 3.44695C4.32906 3.44261 4.24159 3.44348 4.1544 3.44955V3.4502Z" fill="#1ECF45"/>
</svg>
