<svg width="64" height="62" viewBox="0 0 64 62" fill="none" xmlns="http://www.w3.org/2000/svg">
<path d="M35.0907 2.31886L42.3091 16.9451C42.811 17.9624 43.7816 18.6673 44.9043 18.8302L61.0458 21.1758C63.8733 21.5869 65.0014 25.0606 62.9562 27.0538L51.2763 38.4387C50.4646 39.2303 50.0934 40.3718 50.2857 41.4892L53.0425 57.5653C53.5257 60.3808 50.57 62.5275 48.0415 61.1991L33.6048 53.6096C32.6009 53.0823 31.4007 53.0823 30.3968 53.6096L15.9601 61.1991C13.4316 62.5288 10.4759 60.3808 10.9592 57.5653L13.716 41.4892C13.9082 40.3718 13.5371 39.2303 12.7254 38.4387L1.04547 27.0538C-0.999753 25.0593 0.128323 21.5856 2.95586 21.1758L19.0974 18.8302C20.2201 18.6673 21.1907 17.9624 21.6926 16.9451L28.911 2.31886C30.1739 -0.243006 33.8265 -0.243006 35.0907 2.31886Z" fill="#FA9706"/>
</svg>
