<svg width="38" height="38" viewBox="0 0 38 38" fill="gray" xmlns="http://www.w3.org/2000/svg">
<path d="M34.75 0.25H3.25C2.45435 0.25 1.69129 0.56607 1.12868 1.12868C0.56607 1.69129 0.25 2.45435 0.25 3.25V34.75C0.25 35.5456 0.56607 36.3087 1.12868 36.8713C1.69129 37.4339 2.45435 37.75 3.25 37.75H34.75C35.5456 37.75 36.3087 37.4339 36.8713 36.8713C37.4339 36.3087 37.75 35.5456 37.75 34.75V3.25C37.75 2.45435 37.4339 1.69129 36.8713 1.12868C36.3087 0.56607 35.5456 0.25 34.75 0.25ZM13 28C13 28.3978 12.842 28.7794 12.5607 29.0607C12.2794 29.342 11.8978 29.5 11.5 29.5C11.1022 29.5 10.7206 29.342 10.4393 29.0607C10.158 28.7794 10 28.3978 10 28V16C10 15.6022 10.158 15.2206 10.4393 14.9393C10.7206 14.658 11.1022 14.5 11.5 14.5C11.8978 14.5 12.2794 14.658 12.5607 14.9393C12.842 15.2206 13 15.6022 13 16V28ZM11.5 12.25C11.055 12.25 10.62 12.118 10.25 11.8708C9.87996 11.6236 9.59157 11.2722 9.42127 10.861C9.25097 10.4499 9.20642 9.9975 9.29323 9.56105C9.38005 9.12459 9.59434 8.72368 9.90901 8.40901C10.2237 8.09434 10.6246 7.88005 11.061 7.79323C11.4975 7.70642 11.9499 7.75097 12.361 7.92127C12.7722 8.09157 13.1236 8.37996 13.3708 8.74997C13.618 9.11998 13.75 9.55499 13.75 10C13.75 10.5967 13.5129 11.169 13.091 11.591C12.669 12.0129 12.0967 12.25 11.5 12.25V12.25ZM29.5 28C29.5 28.3978 29.342 28.7794 29.0607 29.0607C28.7794 29.342 28.3978 29.5 28 29.5C27.6022 29.5 27.2206 29.342 26.9393 29.0607C26.658 28.7794 26.5 28.3978 26.5 28V21.25C26.5 20.2554 26.1049 19.3016 25.4017 18.5983C24.6984 17.8951 23.7446 17.5 22.75 17.5C21.7554 17.5 20.8016 17.8951 20.0983 18.5983C19.3951 19.3016 19 20.2554 19 21.25V28C19 28.3978 18.842 28.7794 18.5607 29.0607C18.2794 29.342 17.8978 29.5 17.5 29.5C17.1022 29.5 16.7206 29.342 16.4393 29.0607C16.158 28.7794 16 28.3978 16 28V16C15.999 15.6308 16.1341 15.2743 16.3795 14.9985C16.6249 14.7228 16.9634 14.5472 17.3302 14.5054C17.697 14.4636 18.0663 14.5586 18.3675 14.7721C18.6686 14.9855 18.8805 15.3026 18.9625 15.6625C19.9775 14.9745 21.1607 14.5759 22.3851 14.5096C23.6095 14.4433 24.8288 14.7118 25.9121 15.2862C26.9955 15.8607 27.9018 16.7193 28.534 17.7701C29.1661 18.8208 29.5 20.0238 29.5 21.25V28Z" fill="gray"/>
</svg>
