<svg width="17" height="15" viewBox="0 0 17 15" fill="none" xmlns="http://www.w3.org/2000/svg">
<path d="M14.3321 7.71764V6.76831C14.3321 5.17701 13.6999 3.65089 12.5747 2.52567C11.4495 1.40045 9.92338 0.768311 8.33208 0.768311C6.74078 0.768311 5.21466 1.40045 4.08944 2.52567C2.96422 3.65089 2.33208 5.17701 2.33208 6.76831V7.71764C1.63285 8.02553 1.06061 8.56428 0.711161 9.24369C0.361708 9.9231 0.256254 10.7019 0.412451 11.4498C0.568649 12.1977 0.977018 12.8692 1.56919 13.3519C2.16137 13.8347 2.9014 14.0994 3.66541 14.1016H4.99875V7.43498H3.66541V6.76831C3.66541 5.53063 4.15708 4.34365 5.03225 3.46848C5.90742 2.59331 7.0944 2.10164 8.33208 2.10164C9.56976 2.10164 10.7567 2.59331 11.6319 3.46848C12.5071 4.34365 12.9987 5.53063 12.9987 6.76831V7.43498H11.6654V12.7683H8.99875V14.1016H12.9987C13.7628 14.0994 14.5028 13.8347 15.095 13.3519C15.6871 12.8692 16.0955 12.1977 16.2517 11.4498C16.4079 10.7019 16.3025 9.9231 15.953 9.24369C15.6035 8.56428 15.0313 8.02553 14.3321 7.71764ZM3.66541 12.7683C3.13498 12.7683 2.62627 12.5576 2.2512 12.1825C1.87613 11.8075 1.66541 11.2987 1.66541 10.7683C1.66541 10.2379 1.87613 9.72917 2.2512 9.3541C2.62627 8.97902 3.13498 8.76831 3.66541 8.76831V12.7683ZM12.9987 12.7683V8.76831C13.5292 8.76831 14.0379 8.97902 14.413 9.3541C14.788 9.72917 14.9987 10.2379 14.9987 10.7683C14.9987 11.2987 14.788 11.8075 14.413 12.1825C14.0379 12.5576 13.5292 12.7683 12.9987 12.7683Z" fill="#5D84C1"/>
</svg>
